<svg xmlns="http://www.w3.org/2000/svg" xmlns:xlink="http://www.w3.org/1999/xlink" width="300" zoomAndPan="magnify" viewBox="0 0 224.87999 74.999997" height="100" preserveAspectRatio="xMidYMid meet" version="1.0"><defs><g/><clipPath id="f55f5744b7"><path d="M 0 0.0195312 L 74.960938 0.0195312 L 74.960938 74.980469 L 0 74.980469 Z M 0 0.0195312 " clip-rule="nonzero"/></clipPath><clipPath id="05aae0aee9"><path d="M 72.148438 27 L 224.761719 27 L 224.761719 34.777344 L 72.148438 34.777344 Z M 72.148438 27 " clip-rule="nonzero"/></clipPath></defs><path fill="#000000" d="M 15.566406 11.820312 C 15.949219 11.820312 16.257812 11.511719 16.257812 11.128906 L 16.257812 5.398438 L 19.628906 8.402344 L 19.628906 11.128906 C 19.628906 11.511719 19.9375 11.820312 20.320312 11.820312 C 20.699219 11.820312 21.011719 11.511719 21.011719 11.128906 L 21.011719 3.855469 C 21.011719 3.472656 20.699219 3.164062 20.320312 3.164062 C 19.9375 3.164062 19.628906 3.472656 19.628906 3.855469 L 19.628906 6.550781 L 16.027344 3.339844 C 15.824219 3.15625 15.53125 3.109375 15.285156 3.222656 C 15.035156 3.335938 14.875 3.582031 14.875 3.855469 L 14.875 11.128906 C 14.875 11.511719 15.183594 11.820312 15.566406 11.820312 Z M 15.566406 11.820312 " fill-opacity="1" fill-rule="nonzero"/><path fill="#000000" d="M 31.230469 11.8125 C 31.515625 11.898438 31.835938 11.789062 32.003906 11.539062 L 33.855469 8.78125 L 35.597656 11.523438 C 35.730469 11.726562 35.949219 11.84375 36.183594 11.84375 C 36.246094 11.84375 36.3125 11.835938 36.375 11.816406 C 36.671875 11.730469 36.875 11.460938 36.875 11.152344 L 36.875 3.878906 C 36.875 3.496094 36.5625 3.1875 36.183594 3.1875 C 35.800781 3.1875 35.492188 3.496094 35.492188 3.878906 L 35.492188 8.777344 L 34.453125 7.144531 C 34.328125 6.945312 34.109375 6.824219 33.878906 6.824219 C 33.589844 6.804688 33.425781 6.933594 33.296875 7.128906 L 32.121094 8.878906 L 32.121094 3.878906 C 32.121094 3.496094 31.8125 3.1875 31.429688 3.1875 C 31.050781 3.1875 30.738281 3.496094 30.738281 3.878906 L 30.738281 11.152344 C 30.738281 11.457031 30.9375 11.726562 31.230469 11.8125 Z M 31.230469 11.8125 " fill-opacity="1" fill-rule="nonzero"/><path fill="#000000" d="M 23.78125 11.820312 L 27.613281 11.820312 C 27.996094 11.820312 28.304688 11.511719 28.304688 11.128906 C 28.304688 10.75 27.996094 10.4375 27.613281 10.4375 L 24.472656 10.4375 L 24.472656 8.183594 L 27.613281 8.183594 C 27.996094 8.183594 28.304688 7.875 28.304688 7.492188 C 28.304688 7.109375 27.996094 6.800781 27.613281 6.800781 L 24.472656 6.800781 L 24.472656 4.546875 L 27.613281 4.546875 C 27.996094 4.546875 28.304688 4.238281 28.304688 3.855469 C 28.304688 3.472656 27.996094 3.164062 27.613281 3.164062 L 23.78125 3.164062 C 23.402344 3.164062 23.089844 3.472656 23.089844 3.855469 L 23.089844 11.128906 C 23.089844 11.511719 23.402344 11.820312 23.78125 11.820312 Z M 23.78125 11.820312 " fill-opacity="1" fill-rule="nonzero"/><path fill="#000000" d="M 41.648438 10.355469 C 40.816406 10.355469 40.113281 9.847656 40.113281 9.25 C 40.113281 8.867188 39.804688 8.558594 39.421875 8.558594 C 39.042969 8.558594 38.730469 8.867188 38.730469 9.25 C 38.730469 10.621094 40.039062 11.738281 41.648438 11.738281 C 43.257812 11.738281 44.566406 10.621094 44.566406 9.25 C 44.566406 7.878906 43.257812 6.757812 41.648438 6.757812 C 40.816406 6.757812 40.113281 6.253906 40.113281 5.652344 C 40.113281 5.054688 40.820312 4.546875 41.648438 4.546875 C 42.480469 4.546875 43.183594 5.054688 43.183594 5.652344 C 43.183594 6.035156 43.492188 6.34375 43.875 6.34375 C 44.257812 6.34375 44.566406 6.035156 44.566406 5.652344 C 44.566406 4.28125 43.257812 3.164062 41.648438 3.164062 C 40.042969 3.164062 38.730469 4.28125 38.730469 5.652344 C 38.730469 7.023438 40.039062 8.140625 41.648438 8.140625 C 42.480469 8.140625 43.183594 8.648438 43.183594 9.25 C 43.183594 9.847656 42.480469 10.355469 41.648438 10.355469 Z M 41.648438 10.355469 " fill-opacity="1" fill-rule="nonzero"/><g clip-path="url(#f55f5744b7)"><path fill="#000000" d="M 46.140625 68.359375 C 49.003906 72.347656 53.667969 74.960938 58.941406 74.960938 C 67.628906 74.960938 74.695312 67.894531 74.695312 59.203125 C 74.695312 50.515625 67.628906 43.445312 58.941406 43.445312 C 58.78125 43.445312 58.625 43.464844 58.46875 43.46875 L 58.46875 14.671875 C 58.46875 14.660156 58.472656 14.648438 58.472656 14.636719 C 58.472656 14.625 58.46875 14.613281 58.46875 14.605469 L 58.46875 3.175781 C 58.46875 1.445312 57.058594 0.0351562 55.328125 0.0351562 L 3.546875 0.0351562 C 1.816406 0.0351562 0.40625 1.445312 0.40625 3.175781 L 0.40625 14.605469 C 0.40625 14.613281 0.398438 14.625 0.398438 14.636719 C 0.398438 14.648438 0.40625 14.660156 0.40625 14.671875 L 0.40625 65.21875 C 0.40625 66.949219 1.816406 68.359375 3.546875 68.359375 Z M 73.3125 59.207031 C 73.3125 67.132812 66.867188 73.582031 58.941406 73.582031 C 51.015625 73.582031 44.566406 67.132812 44.566406 59.207031 C 44.566406 51.277344 51.011719 44.832031 58.941406 44.832031 C 66.867188 44.832031 73.3125 51.277344 73.3125 59.207031 Z M 3.546875 1.417969 L 55.328125 1.417969 C 56.296875 1.417969 57.085938 2.207031 57.085938 3.175781 L 57.085938 13.945312 L 1.792969 13.945312 L 1.792969 3.175781 C 1.792969 2.207031 2.578125 1.417969 3.550781 1.417969 Z M 1.792969 65.21875 L 1.792969 15.328125 L 57.085938 15.328125 L 57.085938 43.570312 C 51.863281 44.183594 47.417969 47.355469 45.039062 51.800781 L 7.554688 51.800781 C 7.171875 51.800781 6.863281 52.113281 6.863281 52.492188 C 6.863281 52.875 7.171875 53.183594 7.554688 53.183594 L 44.382812 53.183594 C 43.953125 54.226562 43.636719 55.324219 43.4375 56.460938 L 7.554688 56.460938 C 7.171875 56.460938 6.863281 56.773438 6.863281 57.152344 C 6.863281 57.535156 7.171875 57.84375 7.554688 57.84375 L 43.253906 57.84375 C 43.214844 58.296875 43.183594 58.746094 43.183594 59.207031 C 43.183594 59.863281 43.234375 60.503906 43.316406 61.140625 L 7.554688 61.140625 C 7.171875 61.140625 6.863281 61.449219 6.863281 61.832031 C 6.863281 62.214844 7.171875 62.523438 7.554688 62.523438 L 43.542969 62.523438 C 43.882812 64.109375 44.46875 65.605469 45.25 66.976562 L 3.546875 66.976562 C 2.578125 66.976562 1.789062 66.1875 1.789062 65.21875 Z M 1.792969 65.21875 " fill-opacity="1" fill-rule="nonzero"/></g><path fill="#000000" d="M 7 26.128906 L 23.027344 26.128906 C 23.410156 26.128906 23.71875 25.816406 23.71875 25.4375 C 23.71875 25.054688 23.410156 24.746094 23.027344 24.746094 L 7 24.746094 C 6.621094 24.746094 6.308594 25.054688 6.308594 25.4375 C 6.308594 25.816406 6.621094 26.128906 7 26.128906 Z M 7 26.128906 " fill-opacity="1" fill-rule="nonzero"/><path fill="#000000" d="M 7 30.796875 L 23.027344 30.796875 C 23.410156 30.796875 23.71875 30.488281 23.71875 30.105469 C 23.71875 29.726562 23.410156 29.414062 23.027344 29.414062 L 7 29.414062 C 6.621094 29.414062 6.308594 29.726562 6.308594 30.105469 C 6.308594 30.488281 6.621094 30.796875 7 30.796875 Z M 7 30.796875 " fill-opacity="1" fill-rule="nonzero"/><path fill="#000000" d="M 7 35.46875 L 23.027344 35.46875 C 23.410156 35.46875 23.71875 35.15625 23.71875 34.777344 C 23.71875 34.394531 23.410156 34.082031 23.027344 34.082031 L 7 34.082031 C 6.621094 34.082031 6.308594 34.394531 6.308594 34.777344 C 6.308594 35.15625 6.621094 35.46875 7 35.46875 Z M 7 35.46875 " fill-opacity="1" fill-rule="nonzero"/><path fill="#000000" d="M 7 40.136719 L 23.027344 40.136719 C 23.410156 40.136719 23.71875 39.828125 23.71875 39.445312 C 23.71875 39.0625 23.410156 38.753906 23.027344 38.753906 L 7 38.753906 C 6.621094 38.753906 6.308594 39.0625 6.308594 39.445312 C 6.308594 39.828125 6.621094 40.136719 7 40.136719 Z M 7 40.136719 " fill-opacity="1" fill-rule="nonzero"/><path fill="#000000" d="M 35.863281 26.128906 L 51.886719 26.128906 C 52.269531 26.128906 52.578125 25.816406 52.578125 25.4375 C 52.578125 25.054688 52.269531 24.746094 51.886719 24.746094 L 35.863281 24.746094 C 35.480469 24.746094 35.171875 25.054688 35.171875 25.4375 C 35.171875 25.816406 35.480469 26.128906 35.863281 26.128906 Z M 35.863281 26.128906 " fill-opacity="1" fill-rule="nonzero"/><path fill="#000000" d="M 35.863281 30.796875 L 51.886719 30.796875 C 52.269531 30.796875 52.578125 30.488281 52.578125 30.105469 C 52.578125 29.726562 52.269531 29.414062 51.886719 29.414062 L 35.863281 29.414062 C 35.480469 29.414062 35.171875 29.726562 35.171875 30.105469 C 35.171875 30.488281 35.480469 30.796875 35.863281 30.796875 Z M 35.863281 30.796875 " fill-opacity="1" fill-rule="nonzero"/><path fill="#000000" d="M 35.863281 35.46875 L 51.886719 35.46875 C 52.269531 35.46875 52.578125 35.15625 52.578125 34.777344 C 52.578125 34.394531 52.269531 34.082031 51.886719 34.082031 L 35.863281 34.082031 C 35.480469 34.082031 35.171875 34.394531 35.171875 34.777344 C 35.171875 35.15625 35.480469 35.46875 35.863281 35.46875 Z M 35.863281 35.46875 " fill-opacity="1" fill-rule="nonzero"/><path fill="#000000" d="M 35.863281 40.136719 L 51.886719 40.136719 C 52.269531 40.136719 52.578125 39.828125 52.578125 39.445312 C 52.578125 39.0625 52.269531 38.753906 51.886719 38.753906 L 35.863281 38.753906 C 35.480469 38.753906 35.171875 39.0625 35.171875 39.445312 C 35.171875 39.828125 35.480469 40.136719 35.863281 40.136719 Z M 35.863281 40.136719 " fill-opacity="1" fill-rule="nonzero"/><path fill="#000000" d="M 46.539062 55.175781 C 46.476562 55.378906 46.503906 55.59375 46.621094 55.769531 L 48.886719 59.207031 L 46.621094 62.640625 C 46.503906 62.816406 46.476562 63.035156 46.539062 63.234375 C 46.605469 63.433594 46.757812 63.59375 46.957031 63.667969 L 50.808594 65.113281 L 50.992188 69.226562 C 51.003906 69.433594 51.105469 69.628906 51.277344 69.753906 C 51.445312 69.875 51.660156 69.914062 51.867188 69.863281 L 55.835938 68.769531 L 58.402344 71.984375 C 58.53125 72.148438 58.730469 72.246094 58.941406 72.246094 C 59.152344 72.246094 59.351562 72.148438 59.484375 71.984375 L 62.050781 68.769531 L 66.015625 69.863281 C 66.21875 69.917969 66.4375 69.878906 66.605469 69.753906 C 66.773438 69.632812 66.878906 69.4375 66.886719 69.226562 L 67.074219 65.117188 L 70.925781 63.667969 C 71.125 63.59375 71.277344 63.433594 71.34375 63.234375 C 71.40625 63.035156 71.375 62.816406 71.261719 62.640625 L 68.996094 59.207031 L 71.261719 55.773438 C 71.375 55.597656 71.40625 55.378906 71.34375 55.179688 C 71.277344 54.976562 71.125 54.816406 70.925781 54.746094 L 67.074219 53.296875 L 66.886719 49.1875 C 66.878906 48.976562 66.773438 48.78125 66.605469 48.660156 C 66.4375 48.539062 66.21875 48.496094 66.015625 48.550781 L 62.050781 49.644531 L 59.484375 46.429688 C 59.351562 46.265625 59.152344 46.171875 58.941406 46.171875 C 58.730469 46.171875 58.53125 46.265625 58.402344 46.429688 L 55.835938 49.644531 L 51.867188 48.554688 C 51.664062 48.496094 51.445312 48.539062 51.277344 48.660156 C 51.105469 48.785156 51.003906 48.976562 50.992188 49.1875 L 50.808594 53.296875 L 46.957031 54.746094 C 46.757812 54.820312 46.605469 54.980469 46.539062 55.179688 Z M 51.71875 54.429688 C 51.980469 54.332031 52.152344 54.089844 52.167969 53.8125 L 52.332031 50.113281 L 55.90625 51.097656 C 56.171875 51.167969 56.457031 51.078125 56.628906 50.863281 L 58.941406 47.964844 L 61.25 50.863281 C 61.425781 51.078125 61.710938 51.171875 61.976562 51.097656 L 65.546875 50.113281 L 65.714844 53.8125 C 65.726562 54.089844 65.902344 54.332031 66.160156 54.429688 L 69.628906 55.734375 L 67.589844 58.824219 C 67.4375 59.054688 67.4375 59.355469 67.589844 59.585938 L 69.628906 62.675781 L 66.160156 63.980469 C 65.898438 64.078125 65.726562 64.320312 65.714844 64.597656 L 65.546875 68.296875 L 61.976562 67.3125 C 61.707031 67.242188 61.425781 67.332031 61.25 67.550781 L 58.941406 70.445312 L 56.628906 67.546875 C 56.492188 67.382812 56.292969 67.289062 56.085938 67.289062 C 56.027344 67.289062 55.964844 67.296875 55.902344 67.3125 L 52.332031 68.296875 L 52.164062 64.597656 C 52.152344 64.320312 51.976562 64.078125 51.71875 63.980469 L 48.25 62.675781 L 50.289062 59.585938 C 50.441406 59.355469 50.441406 59.054688 50.289062 58.824219 L 48.25 55.734375 Z M 51.71875 54.429688 " fill-opacity="1" fill-rule="nonzero"/><path fill="#000000" d="M 57.464844 64.003906 C 57.59375 64.167969 57.792969 64.265625 58.003906 64.265625 C 58.019531 64.265625 58.03125 64.265625 58.042969 64.265625 C 58.265625 64.25 58.472656 64.128906 58.589844 63.941406 L 64.042969 55.207031 C 64.246094 54.882812 64.148438 54.457031 63.824219 54.257812 C 63.503906 54.054688 63.074219 54.152344 62.871094 54.476562 L 57.9375 62.378906 L 54.964844 58.660156 C 54.726562 58.363281 54.292969 58.316406 53.992188 58.554688 C 53.695312 58.792969 53.644531 59.226562 53.886719 59.527344 L 57.464844 64.007812 Z M 57.464844 64.003906 " fill-opacity="1" fill-rule="nonzero"/><g clip-path="url(#05aae0aee9)"><path fill="#000000" d="M 72.148438 27 L 234.976562 27 L 234.976562 34.777344 L 72.148438 34.777344 Z M 72.148438 27 " fill-opacity="1" fill-rule="nonzero"/></g><g fill="#000000" fill-opacity="1"><g transform="translate(100.299649, 56.843778)"><g><path d="M 5.53125 0 L 5.53125 -13.671875 L 0.3125 -13.671875 L 0.3125 -16.96875 L 14.34375 -16.96875 L 14.34375 -13.671875 L 9.15625 -13.671875 L 9.15625 0 Z M 5.53125 0 "/></g></g></g><g fill="#000000" fill-opacity="1"><g transform="translate(114.960082, 56.843778)"><g><path d="M 1.4375 0 L 1.4375 -11.625 L 4.40625 -11.625 L 4.40625 -9.890625 C 4.832031 -10.535156 5.453125 -11.054688 6.265625 -11.453125 C 7.078125 -11.847656 8.035156 -11.988281 9.140625 -11.875 L 9.140625 -8.578125 C 8.203125 -8.753906 7.335938 -8.679688 6.546875 -8.359375 C 5.753906 -8.035156 5.171875 -7.523438 4.796875 -6.828125 L 4.796875 0 Z M 1.4375 0 "/></g></g></g><g fill="#000000" fill-opacity="1"><g transform="translate(124.434835, 56.843778)"><g><path d="M 6.015625 0.34375 C 4.972656 0.34375 4.097656 0.132812 3.390625 -0.28125 C 2.691406 -0.707031 2.171875 -1.285156 1.828125 -2.015625 C 1.484375 -2.742188 1.3125 -3.550781 1.3125 -4.4375 L 1.3125 -11.625 L 4.671875 -11.625 L 4.671875 -4.875 C 4.671875 -4.09375 4.867188 -3.515625 5.265625 -3.140625 C 5.660156 -2.773438 6.207031 -2.59375 6.90625 -2.59375 C 7.5 -2.59375 8.019531 -2.742188 8.46875 -3.046875 C 8.914062 -3.359375 9.257812 -3.691406 9.5 -4.046875 L 9.5 -11.625 L 12.875 -11.625 L 12.875 0 L 9.890625 0 L 9.890625 -1.484375 C 9.429688 -0.960938 8.878906 -0.523438 8.234375 -0.171875 C 7.585938 0.171875 6.847656 0.34375 6.015625 0.34375 Z M 6.015625 0.34375 "/></g></g></g><g fill="#000000" fill-opacity="1"><g transform="translate(138.731786, 56.843778)"><g><path d="M 7.515625 0.34375 C 6.285156 0.34375 5.160156 0.113281 4.140625 -0.34375 C 3.128906 -0.8125 2.316406 -1.503906 1.703125 -2.421875 C 1.085938 -3.347656 0.78125 -4.476562 0.78125 -5.8125 C 0.78125 -6.914062 0.960938 -7.851562 1.328125 -8.625 C 1.703125 -9.40625 2.1875 -10.039062 2.78125 -10.53125 C 3.382812 -11.019531 4.035156 -11.378906 4.734375 -11.609375 C 5.441406 -11.847656 6.117188 -11.96875 6.765625 -11.96875 C 7.972656 -11.96875 8.976562 -11.753906 9.78125 -11.328125 C 10.59375 -10.898438 11.21875 -10.332031 11.65625 -9.625 C 12.101562 -8.925781 12.378906 -8.148438 12.484375 -7.296875 C 12.597656 -6.441406 12.554688 -5.582031 12.359375 -4.71875 L 4.171875 -4.71875 C 4.296875 -4.15625 4.5625 -3.695312 4.96875 -3.34375 C 5.375 -3 5.863281 -2.742188 6.4375 -2.578125 C 7.019531 -2.421875 7.628906 -2.34375 8.265625 -2.34375 C 8.921875 -2.34375 9.546875 -2.40625 10.140625 -2.53125 C 10.734375 -2.65625 11.28125 -2.820312 11.78125 -3.03125 L 11.78125 -0.390625 C 11.226562 -0.160156 10.597656 0.015625 9.890625 0.140625 C 9.179688 0.273438 8.390625 0.34375 7.515625 0.34375 Z M 4.140625 -6.90625 L 9.28125 -6.90625 C 9.332031 -7.175781 9.300781 -7.503906 9.1875 -7.890625 C 9.070312 -8.285156 8.832031 -8.632812 8.46875 -8.9375 C 8.101562 -9.25 7.570312 -9.40625 6.875 -9.40625 C 6.164062 -9.40625 5.539062 -9.191406 5 -8.765625 C 4.457031 -8.335938 4.171875 -7.71875 4.140625 -6.90625 Z M 4.140625 -6.90625 "/></g></g></g><g fill="#000000" fill-opacity="1"><g transform="translate(152.010984, 56.843778)"><g><path d="M 1.8125 0 L 1.8125 -16.96875 L 5.453125 -16.96875 L 5.453125 -3.296875 L 13.796875 -3.296875 L 13.796875 0 Z M 1.8125 0 "/></g></g></g><g fill="#000000" fill-opacity="1"><g transform="translate(166.114081, 56.843778)"><g><path d="M 7.515625 0.34375 C 6.285156 0.34375 5.160156 0.113281 4.140625 -0.34375 C 3.128906 -0.8125 2.316406 -1.503906 1.703125 -2.421875 C 1.085938 -3.347656 0.78125 -4.476562 0.78125 -5.8125 C 0.78125 -6.914062 0.960938 -7.851562 1.328125 -8.625 C 1.703125 -9.40625 2.1875 -10.039062 2.78125 -10.53125 C 3.382812 -11.019531 4.035156 -11.378906 4.734375 -11.609375 C 5.441406 -11.847656 6.117188 -11.96875 6.765625 -11.96875 C 7.972656 -11.96875 8.976562 -11.753906 9.78125 -11.328125 C 10.59375 -10.898438 11.21875 -10.332031 11.65625 -9.625 C 12.101562 -8.925781 12.378906 -8.148438 12.484375 -7.296875 C 12.597656 -6.441406 12.554688 -5.582031 12.359375 -4.71875 L 4.171875 -4.71875 C 4.296875 -4.15625 4.5625 -3.695312 4.96875 -3.34375 C 5.375 -3 5.863281 -2.742188 6.4375 -2.578125 C 7.019531 -2.421875 7.628906 -2.34375 8.265625 -2.34375 C 8.921875 -2.34375 9.546875 -2.40625 10.140625 -2.53125 C 10.734375 -2.65625 11.28125 -2.820312 11.78125 -3.03125 L 11.78125 -0.390625 C 11.226562 -0.160156 10.597656 0.015625 9.890625 0.140625 C 9.179688 0.273438 8.390625 0.34375 7.515625 0.34375 Z M 4.140625 -6.90625 L 9.28125 -6.90625 C 9.332031 -7.175781 9.300781 -7.503906 9.1875 -7.890625 C 9.070312 -8.285156 8.832031 -8.632812 8.46875 -8.9375 C 8.101562 -9.25 7.570312 -9.40625 6.875 -9.40625 C 6.164062 -9.40625 5.539062 -9.191406 5 -8.765625 C 4.457031 -8.335938 4.171875 -7.71875 4.140625 -6.90625 Z M 4.140625 -6.90625 "/></g></g></g><g fill="#000000" fill-opacity="1"><g transform="translate(179.393279, 56.843778)"><g><path d="M 1.4375 0 L 1.4375 -11.625 L 4.40625 -11.625 L 4.40625 -10.15625 C 4.863281 -10.664062 5.414062 -11.09375 6.0625 -11.4375 C 6.707031 -11.789062 7.445312 -11.96875 8.28125 -11.96875 C 9.300781 -11.96875 10.160156 -11.757812 10.859375 -11.34375 C 11.566406 -10.925781 12.101562 -10.359375 12.46875 -9.640625 C 12.832031 -8.921875 13.015625 -8.109375 13.015625 -7.203125 L 13.015625 0 L 9.640625 0 L 9.640625 -6.765625 C 9.640625 -7.535156 9.425781 -8.109375 9 -8.484375 C 8.570312 -8.859375 8.035156 -9.046875 7.390625 -9.046875 C 6.796875 -9.046875 6.28125 -8.890625 5.84375 -8.578125 C 5.40625 -8.273438 5.054688 -7.941406 4.796875 -7.578125 L 4.796875 0 Z M 1.4375 0 "/></g></g></g><g fill="#000000" fill-opacity="1"><g transform="translate(193.690229, 56.843778)"><g><path d="M 5.640625 0.34375 C 4.753906 0.34375 3.910156 0.25 3.109375 0.0625 C 2.316406 -0.125 1.617188 -0.394531 1.015625 -0.75 L 1.015625 -3.53125 C 1.648438 -3.132812 2.375 -2.828125 3.1875 -2.609375 C 4 -2.398438 4.753906 -2.296875 5.453125 -2.296875 C 6.066406 -2.296875 6.554688 -2.359375 6.921875 -2.484375 C 7.296875 -2.617188 7.484375 -2.847656 7.484375 -3.171875 C 7.484375 -3.484375 7.328125 -3.734375 7.015625 -3.921875 C 6.703125 -4.117188 6.296875 -4.289062 5.796875 -4.4375 C 5.296875 -4.582031 4.765625 -4.738281 4.203125 -4.90625 C 3.648438 -5.070312 3.117188 -5.289062 2.609375 -5.5625 C 2.109375 -5.84375 1.703125 -6.207031 1.390625 -6.65625 C 1.078125 -7.113281 0.921875 -7.691406 0.921875 -8.390625 C 0.921875 -9.285156 1.15625 -9.992188 1.625 -10.515625 C 2.09375 -11.035156 2.695312 -11.40625 3.4375 -11.625 C 4.1875 -11.851562 4.960938 -11.96875 5.765625 -11.96875 C 6.585938 -11.96875 7.359375 -11.875 8.078125 -11.6875 C 8.796875 -11.507812 9.457031 -11.273438 10.0625 -10.984375 L 10.0625 -8.1875 C 9.5625 -8.53125 8.929688 -8.8125 8.171875 -9.03125 C 7.410156 -9.257812 6.691406 -9.375 6.015625 -9.375 C 5.617188 -9.375 5.25 -9.3125 4.90625 -9.1875 C 4.5625 -9.070312 4.390625 -8.828125 4.390625 -8.453125 C 4.390625 -8.128906 4.546875 -7.875 4.859375 -7.6875 C 5.171875 -7.507812 5.578125 -7.347656 6.078125 -7.203125 C 6.578125 -7.054688 7.101562 -6.894531 7.65625 -6.71875 C 8.21875 -6.550781 8.742188 -6.332031 9.234375 -6.0625 C 9.734375 -5.800781 10.140625 -5.441406 10.453125 -4.984375 C 10.765625 -4.535156 10.921875 -3.957031 10.921875 -3.25 C 10.921875 -2.34375 10.675781 -1.625 10.1875 -1.09375 C 9.695312 -0.570312 9.050781 -0.203125 8.25 0.015625 C 7.445312 0.234375 6.578125 0.34375 5.640625 0.34375 Z M 5.640625 0.34375 "/></g></g></g><g fill="#000000" fill-opacity="1"><g transform="translate(101.039131, 19.072031)"><g><path d="M 1.015625 0 L 1.015625 -7.046875 L 3.421875 -7.046875 C 3.972656 -7.046875 4.453125 -6.960938 4.859375 -6.796875 C 5.273438 -6.628906 5.617188 -6.382812 5.890625 -6.0625 C 6.171875 -5.75 6.378906 -5.378906 6.515625 -4.953125 C 6.660156 -4.523438 6.734375 -4.050781 6.734375 -3.53125 C 6.734375 -3.007812 6.660156 -2.53125 6.515625 -2.09375 C 6.378906 -1.664062 6.171875 -1.296875 5.890625 -0.984375 C 5.617188 -0.671875 5.273438 -0.425781 4.859375 -0.25 C 4.453125 -0.0820312 3.972656 0 3.421875 0 Z M 2.1875 -1.0625 L 3.375 -1.0625 C 3.851562 -1.0625 4.25 -1.160156 4.5625 -1.359375 C 4.875 -1.554688 5.109375 -1.835938 5.265625 -2.203125 C 5.421875 -2.578125 5.5 -3.019531 5.5 -3.53125 C 5.5 -4.039062 5.421875 -4.476562 5.265625 -4.84375 C 5.109375 -5.21875 4.875 -5.503906 4.5625 -5.703125 C 4.25 -5.898438 3.851562 -6 3.375 -6 L 2.1875 -6 Z M 2.1875 -1.0625 "/></g></g></g><g fill="#000000" fill-opacity="1"><g transform="translate(108.314669, 19.072031)"><g><path d="M 5.640625 0 L 5.078125 -1.5625 L 2 -1.5625 L 1.4375 0 L 0.21875 0 L 2.8125 -7.046875 L 4.25 -7.046875 L 6.859375 0 Z M 2.359375 -2.578125 L 4.71875 -2.578125 L 3.546875 -5.90625 Z M 2.359375 -2.578125 "/></g></g></g><g fill="#000000" fill-opacity="1"><g transform="translate(115.387696, 19.072031)"><g><path d="M 1.015625 0 L 1.015625 -7.046875 L 2.1875 -7.046875 L 2.1875 0 Z M 1.015625 0 "/></g></g></g><g fill="#000000" fill-opacity="1"><g transform="translate(118.583401, 19.072031)"><g><path d="M 2.1875 -1.0625 L 4.515625 -1.0625 L 4.515625 0 L 1.015625 0 L 1.015625 -7.046875 L 2.1875 -7.046875 Z M 2.1875 -1.0625 "/></g></g></g><g fill="#000000" fill-opacity="1"><g transform="translate(123.344852, 19.072031)"><g><path d="M 2.484375 0 L 2.484375 -3.359375 L 0.15625 -7.046875 L 1.484375 -7.046875 L 3.078125 -4.421875 L 4.671875 -7.046875 L 5.984375 -7.046875 L 3.671875 -3.359375 L 3.671875 0 Z M 2.484375 0 "/></g></g></g><g fill="#000000" fill-opacity="1"><g transform="translate(129.479419, 19.072031)"><g/></g></g><g fill="#000000" fill-opacity="1"><g transform="translate(132.107108, 19.072031)"><g><path d="M 5.78125 -7.046875 L 6.96875 -7.046875 L 6.96875 0 L 5.640625 0 L 2.1875 -5.375 L 2.1875 0 L 1.015625 0 L 1.015625 -7.046875 L 2.3125 -7.046875 L 5.78125 -1.703125 Z M 5.78125 -7.046875 "/></g></g></g><g fill="#000000" fill-opacity="1"><g transform="translate(140.074143, 19.072031)"><g><path d="M 4.9375 -6 L 2.203125 -6 L 2.203125 -4.046875 L 4.625 -4.046875 L 4.625 -3 L 2.203125 -3 L 2.203125 -1.0625 L 4.9375 -1.0625 L 4.9375 0 L 1.015625 0 L 1.015625 -7.046875 L 4.9375 -7.046875 Z M 4.9375 -6 "/></g></g></g><g fill="#000000" fill-opacity="1"><g transform="translate(145.615998, 19.072031)"><g><path d="M 2.203125 0 L 0.28125 -7.046875 L 1.515625 -7.046875 L 3.03125 -1.484375 L 4.703125 -7.046875 L 5.71875 -7.046875 L 7.375 -1.484375 L 8.90625 -7.046875 L 10.140625 -7.046875 L 8.21875 0 L 6.734375 0 L 5.203125 -4.890625 L 3.6875 0 Z M 2.203125 0 "/></g></g></g><g fill="#000000" fill-opacity="1"><g transform="translate(156.027969, 19.072031)"><g><path d="M 3.28125 0.09375 C 2.78125 0.09375 2.328125 0.0195312 1.921875 -0.125 C 1.523438 -0.28125 1.195312 -0.503906 0.9375 -0.796875 C 0.675781 -1.085938 0.507812 -1.441406 0.4375 -1.859375 L 1.609375 -2.140625 C 1.710938 -1.722656 1.914062 -1.410156 2.21875 -1.203125 C 2.519531 -0.992188 2.878906 -0.890625 3.296875 -0.890625 C 3.535156 -0.890625 3.753906 -0.921875 3.953125 -0.984375 C 4.148438 -1.054688 4.3125 -1.164062 4.4375 -1.3125 C 4.5625 -1.46875 4.625 -1.664062 4.625 -1.90625 C 4.613281 -2.101562 4.554688 -2.269531 4.453125 -2.40625 C 4.359375 -2.539062 4.226562 -2.648438 4.0625 -2.734375 C 3.894531 -2.828125 3.703125 -2.90625 3.484375 -2.96875 C 3.273438 -3.039062 3.054688 -3.109375 2.828125 -3.171875 C 2.609375 -3.234375 2.394531 -3.300781 2.1875 -3.375 C 1.976562 -3.445312 1.78125 -3.53125 1.59375 -3.625 C 1.414062 -3.726562 1.253906 -3.847656 1.109375 -3.984375 C 0.972656 -4.117188 0.863281 -4.28125 0.78125 -4.46875 C 0.695312 -4.664062 0.65625 -4.894531 0.65625 -5.15625 C 0.65625 -5.476562 0.71875 -5.765625 0.84375 -6.015625 C 0.96875 -6.265625 1.140625 -6.472656 1.359375 -6.640625 C 1.585938 -6.804688 1.847656 -6.929688 2.140625 -7.015625 C 2.429688 -7.109375 2.742188 -7.15625 3.078125 -7.15625 C 3.390625 -7.15625 3.691406 -7.117188 3.984375 -7.046875 C 4.273438 -6.984375 4.539062 -6.878906 4.78125 -6.734375 C 5.019531 -6.585938 5.222656 -6.398438 5.390625 -6.171875 C 5.566406 -5.953125 5.691406 -5.679688 5.765625 -5.359375 L 4.671875 -5.09375 C 4.566406 -5.457031 4.375 -5.722656 4.09375 -5.890625 C 3.820312 -6.066406 3.503906 -6.15625 3.140625 -6.15625 C 2.921875 -6.15625 2.710938 -6.117188 2.515625 -6.046875 C 2.316406 -5.984375 2.15625 -5.878906 2.03125 -5.734375 C 1.914062 -5.597656 1.859375 -5.414062 1.859375 -5.1875 C 1.859375 -5.019531 1.898438 -4.875 1.984375 -4.75 C 2.066406 -4.632812 2.179688 -4.535156 2.328125 -4.453125 C 2.484375 -4.378906 2.65625 -4.3125 2.84375 -4.25 C 3.039062 -4.1875 3.242188 -4.125 3.453125 -4.0625 C 3.679688 -4 3.90625 -3.929688 4.125 -3.859375 C 4.351562 -3.785156 4.566406 -3.695312 4.765625 -3.59375 C 4.972656 -3.5 5.15625 -3.378906 5.3125 -3.234375 C 5.476562 -3.085938 5.609375 -2.910156 5.703125 -2.703125 C 5.796875 -2.492188 5.84375 -2.242188 5.84375 -1.953125 C 5.84375 -1.617188 5.773438 -1.320312 5.640625 -1.0625 C 5.515625 -0.8125 5.332031 -0.597656 5.09375 -0.421875 C 4.863281 -0.253906 4.59375 -0.125 4.28125 -0.03125 C 3.976562 0.0507812 3.644531 0.09375 3.28125 0.09375 Z M 3.28125 0.09375 "/></g></g></g><g fill="#000000" fill-opacity="1"><g transform="translate(162.369985, 19.072031)"><g/></g></g><g fill="#000000" fill-opacity="1"><g transform="translate(164.997674, 19.072031)"><g><path d="M 3.53125 0.09375 C 3.15625 0.09375 2.804688 0.0390625 2.484375 -0.0625 C 2.160156 -0.164062 1.875 -0.320312 1.625 -0.53125 C 1.382812 -0.738281 1.195312 -1 1.0625 -1.3125 C 0.925781 -1.625 0.859375 -1.988281 0.859375 -2.40625 L 0.859375 -7.046875 L 2.046875 -7.046875 L 2.046875 -2.5625 C 2.046875 -2.1875 2.109375 -1.878906 2.234375 -1.640625 C 2.367188 -1.410156 2.546875 -1.238281 2.765625 -1.125 C 2.992188 -1.019531 3.25 -0.96875 3.53125 -0.96875 C 3.800781 -0.96875 4.046875 -1.019531 4.265625 -1.125 C 4.492188 -1.238281 4.675781 -1.410156 4.8125 -1.640625 C 4.945312 -1.878906 5.015625 -2.1875 5.015625 -2.5625 L 5.015625 -7.046875 L 6.1875 -7.046875 L 6.1875 -2.40625 C 6.1875 -1.988281 6.117188 -1.625 5.984375 -1.3125 C 5.859375 -1 5.671875 -0.738281 5.421875 -0.53125 C 5.179688 -0.320312 4.898438 -0.164062 4.578125 -0.0625 C 4.253906 0.0390625 3.90625 0.09375 3.53125 0.09375 Z M 3.53125 0.09375 "/></g></g></g><g fill="#000000" fill-opacity="1"><g transform="translate(172.046005, 19.072031)"><g><path d="M 5.03125 -6.6875 C 5.320312 -6.507812 5.535156 -6.273438 5.671875 -5.984375 C 5.804688 -5.703125 5.875 -5.359375 5.875 -4.953125 C 5.875 -4.554688 5.804688 -4.195312 5.671875 -3.875 C 5.546875 -3.550781 5.335938 -3.289062 5.046875 -3.09375 C 4.847656 -2.9375 4.601562 -2.816406 4.3125 -2.734375 C 4.03125 -2.660156 3.675781 -2.625 3.25 -2.625 L 2.1875 -2.625 L 2.1875 0 L 1.015625 0 L 1.015625 -7.046875 L 3.25 -7.046875 C 3.664062 -7.046875 4.015625 -7.015625 4.296875 -6.953125 C 4.578125 -6.898438 4.820312 -6.8125 5.03125 -6.6875 Z M 4.34375 -3.953125 C 4.457031 -4.046875 4.539062 -4.164062 4.59375 -4.3125 C 4.644531 -4.46875 4.671875 -4.660156 4.671875 -4.890625 C 4.671875 -5.109375 4.640625 -5.289062 4.578125 -5.4375 C 4.523438 -5.582031 4.441406 -5.695312 4.328125 -5.78125 C 4.191406 -5.894531 4.019531 -5.96875 3.8125 -6 C 3.613281 -6.03125 3.375 -6.046875 3.09375 -6.046875 L 2.1875 -6.046875 L 2.1875 -3.640625 L 3.09375 -3.640625 C 3.382812 -3.640625 3.632812 -3.660156 3.84375 -3.703125 C 4.050781 -3.742188 4.21875 -3.828125 4.34375 -3.953125 Z M 4.34375 -3.953125 "/></g></g></g><g fill="#000000" fill-opacity="1"><g transform="translate(178.323811, 19.072031)"><g><path d="M 1.015625 0 L 1.015625 -7.046875 L 3.421875 -7.046875 C 3.972656 -7.046875 4.453125 -6.960938 4.859375 -6.796875 C 5.273438 -6.628906 5.617188 -6.382812 5.890625 -6.0625 C 6.171875 -5.75 6.378906 -5.378906 6.515625 -4.953125 C 6.660156 -4.523438 6.734375 -4.050781 6.734375 -3.53125 C 6.734375 -3.007812 6.660156 -2.53125 6.515625 -2.09375 C 6.378906 -1.664062 6.171875 -1.296875 5.890625 -0.984375 C 5.617188 -0.671875 5.273438 -0.425781 4.859375 -0.25 C 4.453125 -0.0820312 3.972656 0 3.421875 0 Z M 2.1875 -1.0625 L 3.375 -1.0625 C 3.851562 -1.0625 4.25 -1.160156 4.5625 -1.359375 C 4.875 -1.554688 5.109375 -1.835938 5.265625 -2.203125 C 5.421875 -2.578125 5.5 -3.019531 5.5 -3.53125 C 5.5 -4.039062 5.421875 -4.476562 5.265625 -4.84375 C 5.109375 -5.21875 4.875 -5.503906 4.5625 -5.703125 C 4.25 -5.898438 3.851562 -6 3.375 -6 L 2.1875 -6 Z M 2.1875 -1.0625 "/></g></g></g><g fill="#000000" fill-opacity="1"><g transform="translate(185.599349, 19.072031)"><g><path d="M 5.640625 0 L 5.078125 -1.5625 L 2 -1.5625 L 1.4375 0 L 0.21875 0 L 2.8125 -7.046875 L 4.25 -7.046875 L 6.859375 0 Z M 2.359375 -2.578125 L 4.71875 -2.578125 L 3.546875 -5.90625 Z M 2.359375 -2.578125 "/></g></g></g><g fill="#000000" fill-opacity="1"><g transform="translate(192.672376, 19.072031)"><g><path d="M 4.90625 -7.046875 L 4.90625 -6 L 3.15625 -6 L 3.15625 0 L 1.984375 0 L 1.984375 -6 L 0.234375 -6 L 0.234375 -7.046875 Z M 4.90625 -7.046875 "/></g></g></g><g fill="#000000" fill-opacity="1"><g transform="translate(197.804273, 19.072031)"><g><path d="M 4.9375 -6 L 2.203125 -6 L 2.203125 -4.046875 L 4.625 -4.046875 L 4.625 -3 L 2.203125 -3 L 2.203125 -1.0625 L 4.9375 -1.0625 L 4.9375 0 L 1.015625 0 L 1.015625 -7.046875 L 4.9375 -7.046875 Z M 4.9375 -6 "/></g></g></g></svg>