<svg xmlns="http://www.w3.org/2000/svg" xmlns:xlink="http://www.w3.org/1999/xlink" width="300" zoomAndPan="magnify" viewBox="0 0 224.87999 74.999997" height="100" preserveAspectRatio="xMidYMid meet" version="1.0"><defs><g/><clipPath id="dd086704ec"><path d="M 0 0.0195312 L 224.761719 0.0195312 L 224.761719 74.980469 L 0 74.980469 Z M 0 0.0195312 " clip-rule="nonzero"/></clipPath><clipPath id="e4b4c81e88"><path d="M 62.8125 28.007812 L 224.761719 28.007812 L 224.761719 35.785156 L 62.8125 35.785156 Z M 62.8125 28.007812 " clip-rule="nonzero"/></clipPath><clipPath id="924204f106"><path d="M 0 10.242188 L 52.472656 10.242188 L 52.472656 62.714844 L 0 62.714844 Z M 0 10.242188 " clip-rule="nonzero"/></clipPath></defs><g clip-path="url(#dd086704ec)"><path fill="#ffffff" d="M 0 0.0195312 L 224.878906 0.0195312 L 224.878906 74.980469 L 0 74.980469 Z M 0 0.0195312 " fill-opacity="1" fill-rule="nonzero"/><path fill="#ffffff" d="M 0 0.0195312 L 224.878906 0.0195312 L 224.878906 74.980469 L 0 74.980469 Z M 0 0.0195312 " fill-opacity="1" fill-rule="nonzero"/></g><g clip-path="url(#e4b4c81e88)"><path fill="#000000" d="M 62.8125 28.007812 L 225.640625 28.007812 L 225.640625 35.785156 L 62.8125 35.785156 Z M 62.8125 28.007812 " fill-opacity="1" fill-rule="nonzero"/></g><g clip-path="url(#924204f106)"><path fill="#000000" d="M 32.660156 11.675781 C 31.976562 10.574219 30.507812 10.289062 29.464844 11.054688 L 24.632812 14.585938 C 24.015625 15.042969 23.207031 15.140625 22.496094 14.855469 L 16.957031 12.609375 C 15.761719 12.121094 14.40625 12.757812 14.007812 13.996094 L 12.164062 19.714844 C 11.925781 20.449219 11.332031 21.007812 10.585938 21.195312 L 4.796875 22.660156 C 3.546875 22.976562 2.820312 24.292969 3.21875 25.527344 L 5.066406 31.246094 C 5.300781 31.980469 5.148438 32.789062 4.65625 33.378906 L 0.824219 37.992188 C -0.00390625 38.988281 0.179688 40.480469 1.222656 41.246094 L 6.050781 44.78125 C 6.671875 45.234375 7.015625 45.976562 6.964844 46.746094 L 6.554688 52.746094 C 6.464844 54.042969 7.488281 55.144531 8.777344 55.144531 L 14.746094 55.144531 C 15.511719 55.144531 16.226562 55.542969 16.632812 56.195312 L 19.800781 61.292969 C 20.488281 62.394531 21.953125 62.679688 22.996094 61.914062 L 27.828125 58.378906 C 28.445312 57.925781 29.253906 57.824219 29.96875 58.113281 L 35.503906 60.359375 C 36.699219 60.84375 38.054688 60.207031 38.453125 58.972656 L 40.296875 53.253906 C 40.535156 52.519531 41.128906 51.957031 41.875 51.769531 L 47.664062 50.308594 C 48.914062 49.992188 49.640625 48.675781 49.242188 47.441406 L 47.394531 41.722656 C 47.160156 40.988281 47.3125 40.179688 47.804688 39.589844 L 51.636719 34.976562 C 52.464844 33.980469 52.28125 32.488281 51.238281 31.722656 L 46.410156 28.1875 C 45.789062 27.734375 45.445312 26.992188 45.496094 26.21875 L 45.90625 20.222656 C 45.996094 18.925781 44.976562 17.824219 43.683594 17.824219 L 37.714844 17.824219 C 36.949219 17.824219 36.234375 17.425781 35.828125 16.773438 Z M 23.207031 45.28125 L 36.457031 31.9375 L 33.605469 29.066406 L 23.207031 39.542969 L 18.75 35.050781 L 15.898438 37.917969 Z M 23.207031 45.28125 " fill-opacity="1" fill-rule="evenodd"/></g><g fill="#000000" fill-opacity="1"><g transform="translate(90.965124, 57.852825)"><g><path d="M 5.53125 0 L 5.53125 -13.671875 L 0.3125 -13.671875 L 0.3125 -16.96875 L 14.34375 -16.96875 L 14.34375 -13.671875 L 9.15625 -13.671875 L 9.15625 0 Z M 5.53125 0 "/></g></g></g><g fill="#000000" fill-opacity="1"><g transform="translate(105.625558, 57.852825)"><g><path d="M 1.4375 0 L 1.4375 -11.625 L 4.40625 -11.625 L 4.40625 -9.890625 C 4.832031 -10.535156 5.453125 -11.054688 6.265625 -11.453125 C 7.078125 -11.847656 8.035156 -11.988281 9.140625 -11.875 L 9.140625 -8.578125 C 8.203125 -8.753906 7.335938 -8.679688 6.546875 -8.359375 C 5.753906 -8.035156 5.171875 -7.523438 4.796875 -6.828125 L 4.796875 0 Z M 1.4375 0 "/></g></g></g><g fill="#000000" fill-opacity="1"><g transform="translate(115.100311, 57.852825)"><g><path d="M 6.015625 0.34375 C 4.972656 0.34375 4.097656 0.132812 3.390625 -0.28125 C 2.691406 -0.707031 2.171875 -1.285156 1.828125 -2.015625 C 1.484375 -2.742188 1.3125 -3.550781 1.3125 -4.4375 L 1.3125 -11.625 L 4.671875 -11.625 L 4.671875 -4.875 C 4.671875 -4.09375 4.867188 -3.515625 5.265625 -3.140625 C 5.660156 -2.773438 6.207031 -2.59375 6.90625 -2.59375 C 7.5 -2.59375 8.019531 -2.742188 8.46875 -3.046875 C 8.914062 -3.359375 9.257812 -3.691406 9.5 -4.046875 L 9.5 -11.625 L 12.875 -11.625 L 12.875 0 L 9.890625 0 L 9.890625 -1.484375 C 9.429688 -0.960938 8.878906 -0.523438 8.234375 -0.171875 C 7.585938 0.171875 6.847656 0.34375 6.015625 0.34375 Z M 6.015625 0.34375 "/></g></g></g><g fill="#000000" fill-opacity="1"><g transform="translate(129.397261, 57.852825)"><g><path d="M 7.515625 0.34375 C 6.285156 0.34375 5.160156 0.113281 4.140625 -0.34375 C 3.128906 -0.8125 2.316406 -1.503906 1.703125 -2.421875 C 1.085938 -3.347656 0.78125 -4.476562 0.78125 -5.8125 C 0.78125 -6.914062 0.960938 -7.851562 1.328125 -8.625 C 1.703125 -9.40625 2.1875 -10.039062 2.78125 -10.53125 C 3.382812 -11.019531 4.035156 -11.378906 4.734375 -11.609375 C 5.441406 -11.847656 6.117188 -11.96875 6.765625 -11.96875 C 7.972656 -11.96875 8.976562 -11.753906 9.78125 -11.328125 C 10.59375 -10.898438 11.21875 -10.332031 11.65625 -9.625 C 12.101562 -8.925781 12.378906 -8.148438 12.484375 -7.296875 C 12.597656 -6.441406 12.554688 -5.582031 12.359375 -4.71875 L 4.171875 -4.71875 C 4.296875 -4.15625 4.5625 -3.695312 4.96875 -3.34375 C 5.375 -3 5.863281 -2.742188 6.4375 -2.578125 C 7.019531 -2.421875 7.628906 -2.34375 8.265625 -2.34375 C 8.921875 -2.34375 9.546875 -2.40625 10.140625 -2.53125 C 10.734375 -2.65625 11.28125 -2.820312 11.78125 -3.03125 L 11.78125 -0.390625 C 11.226562 -0.160156 10.597656 0.015625 9.890625 0.140625 C 9.179688 0.273438 8.390625 0.34375 7.515625 0.34375 Z M 4.140625 -6.90625 L 9.28125 -6.90625 C 9.332031 -7.175781 9.300781 -7.503906 9.1875 -7.890625 C 9.070312 -8.285156 8.832031 -8.632812 8.46875 -8.9375 C 8.101562 -9.25 7.570312 -9.40625 6.875 -9.40625 C 6.164062 -9.40625 5.539062 -9.191406 5 -8.765625 C 4.457031 -8.335938 4.171875 -7.71875 4.140625 -6.90625 Z M 4.140625 -6.90625 "/></g></g></g><g fill="#000000" fill-opacity="1"><g transform="translate(142.676459, 57.852825)"><g><path d="M 1.8125 0 L 1.8125 -16.96875 L 5.453125 -16.96875 L 5.453125 -3.296875 L 13.796875 -3.296875 L 13.796875 0 Z M 1.8125 0 "/></g></g></g><g fill="#000000" fill-opacity="1"><g transform="translate(156.779556, 57.852825)"><g><path d="M 7.515625 0.34375 C 6.285156 0.34375 5.160156 0.113281 4.140625 -0.34375 C 3.128906 -0.8125 2.316406 -1.503906 1.703125 -2.421875 C 1.085938 -3.347656 0.78125 -4.476562 0.78125 -5.8125 C 0.78125 -6.914062 0.960938 -7.851562 1.328125 -8.625 C 1.703125 -9.40625 2.1875 -10.039062 2.78125 -10.53125 C 3.382812 -11.019531 4.035156 -11.378906 4.734375 -11.609375 C 5.441406 -11.847656 6.117188 -11.96875 6.765625 -11.96875 C 7.972656 -11.96875 8.976562 -11.753906 9.78125 -11.328125 C 10.59375 -10.898438 11.21875 -10.332031 11.65625 -9.625 C 12.101562 -8.925781 12.378906 -8.148438 12.484375 -7.296875 C 12.597656 -6.441406 12.554688 -5.582031 12.359375 -4.71875 L 4.171875 -4.71875 C 4.296875 -4.15625 4.5625 -3.695312 4.96875 -3.34375 C 5.375 -3 5.863281 -2.742188 6.4375 -2.578125 C 7.019531 -2.421875 7.628906 -2.34375 8.265625 -2.34375 C 8.921875 -2.34375 9.546875 -2.40625 10.140625 -2.53125 C 10.734375 -2.65625 11.28125 -2.820312 11.78125 -3.03125 L 11.78125 -0.390625 C 11.226562 -0.160156 10.597656 0.015625 9.890625 0.140625 C 9.179688 0.273438 8.390625 0.34375 7.515625 0.34375 Z M 4.140625 -6.90625 L 9.28125 -6.90625 C 9.332031 -7.175781 9.300781 -7.503906 9.1875 -7.890625 C 9.070312 -8.285156 8.832031 -8.632812 8.46875 -8.9375 C 8.101562 -9.25 7.570312 -9.40625 6.875 -9.40625 C 6.164062 -9.40625 5.539062 -9.191406 5 -8.765625 C 4.457031 -8.335938 4.171875 -7.71875 4.140625 -6.90625 Z M 4.140625 -6.90625 "/></g></g></g><g fill="#000000" fill-opacity="1"><g transform="translate(170.058754, 57.852825)"><g><path d="M 1.4375 0 L 1.4375 -11.625 L 4.40625 -11.625 L 4.40625 -10.15625 C 4.863281 -10.664062 5.414062 -11.09375 6.0625 -11.4375 C 6.707031 -11.789062 7.445312 -11.96875 8.28125 -11.96875 C 9.300781 -11.96875 10.160156 -11.757812 10.859375 -11.34375 C 11.566406 -10.925781 12.101562 -10.359375 12.46875 -9.640625 C 12.832031 -8.921875 13.015625 -8.109375 13.015625 -7.203125 L 13.015625 0 L 9.640625 0 L 9.640625 -6.765625 C 9.640625 -7.535156 9.425781 -8.109375 9 -8.484375 C 8.570312 -8.859375 8.035156 -9.046875 7.390625 -9.046875 C 6.796875 -9.046875 6.28125 -8.890625 5.84375 -8.578125 C 5.40625 -8.273438 5.054688 -7.941406 4.796875 -7.578125 L 4.796875 0 Z M 1.4375 0 "/></g></g></g><g fill="#000000" fill-opacity="1"><g transform="translate(184.355705, 57.852825)"><g><path d="M 5.640625 0.34375 C 4.753906 0.34375 3.910156 0.25 3.109375 0.0625 C 2.316406 -0.125 1.617188 -0.394531 1.015625 -0.75 L 1.015625 -3.53125 C 1.648438 -3.132812 2.375 -2.828125 3.1875 -2.609375 C 4 -2.398438 4.753906 -2.296875 5.453125 -2.296875 C 6.066406 -2.296875 6.554688 -2.359375 6.921875 -2.484375 C 7.296875 -2.617188 7.484375 -2.847656 7.484375 -3.171875 C 7.484375 -3.484375 7.328125 -3.734375 7.015625 -3.921875 C 6.703125 -4.117188 6.296875 -4.289062 5.796875 -4.4375 C 5.296875 -4.582031 4.765625 -4.738281 4.203125 -4.90625 C 3.648438 -5.070312 3.117188 -5.289062 2.609375 -5.5625 C 2.109375 -5.84375 1.703125 -6.207031 1.390625 -6.65625 C 1.078125 -7.113281 0.921875 -7.691406 0.921875 -8.390625 C 0.921875 -9.285156 1.15625 -9.992188 1.625 -10.515625 C 2.09375 -11.035156 2.695312 -11.40625 3.4375 -11.625 C 4.1875 -11.851562 4.960938 -11.96875 5.765625 -11.96875 C 6.585938 -11.96875 7.359375 -11.875 8.078125 -11.6875 C 8.796875 -11.507812 9.457031 -11.273438 10.0625 -10.984375 L 10.0625 -8.1875 C 9.5625 -8.53125 8.929688 -8.8125 8.171875 -9.03125 C 7.410156 -9.257812 6.691406 -9.375 6.015625 -9.375 C 5.617188 -9.375 5.25 -9.3125 4.90625 -9.1875 C 4.5625 -9.070312 4.390625 -8.828125 4.390625 -8.453125 C 4.390625 -8.128906 4.546875 -7.875 4.859375 -7.6875 C 5.171875 -7.507812 5.578125 -7.347656 6.078125 -7.203125 C 6.578125 -7.054688 7.101562 -6.894531 7.65625 -6.71875 C 8.21875 -6.550781 8.742188 -6.332031 9.234375 -6.0625 C 9.734375 -5.800781 10.140625 -5.441406 10.453125 -4.984375 C 10.765625 -4.535156 10.921875 -3.957031 10.921875 -3.25 C 10.921875 -2.34375 10.675781 -1.625 10.1875 -1.09375 C 9.695312 -0.570312 9.050781 -0.203125 8.25 0.015625 C 7.445312 0.234375 6.578125 0.34375 5.640625 0.34375 Z M 5.640625 0.34375 "/></g></g></g><g fill="#000000" fill-opacity="1"><g transform="translate(91.704612, 20.081076)"><g><path d="M 1.015625 0 L 1.015625 -7.046875 L 3.421875 -7.046875 C 3.972656 -7.046875 4.453125 -6.960938 4.859375 -6.796875 C 5.273438 -6.628906 5.617188 -6.382812 5.890625 -6.0625 C 6.171875 -5.75 6.378906 -5.378906 6.515625 -4.953125 C 6.660156 -4.523438 6.734375 -4.050781 6.734375 -3.53125 C 6.734375 -3.007812 6.660156 -2.53125 6.515625 -2.09375 C 6.378906 -1.664062 6.171875 -1.296875 5.890625 -0.984375 C 5.617188 -0.671875 5.273438 -0.425781 4.859375 -0.25 C 4.453125 -0.0820312 3.972656 0 3.421875 0 Z M 2.1875 -1.0625 L 3.375 -1.0625 C 3.851562 -1.0625 4.25 -1.160156 4.5625 -1.359375 C 4.875 -1.554688 5.109375 -1.835938 5.265625 -2.203125 C 5.421875 -2.578125 5.5 -3.019531 5.5 -3.53125 C 5.5 -4.039062 5.421875 -4.476562 5.265625 -4.84375 C 5.109375 -5.21875 4.875 -5.503906 4.5625 -5.703125 C 4.25 -5.898438 3.851562 -6 3.375 -6 L 2.1875 -6 Z M 2.1875 -1.0625 "/></g></g></g><g fill="#000000" fill-opacity="1"><g transform="translate(98.980149, 20.081076)"><g><path d="M 5.640625 0 L 5.078125 -1.5625 L 2 -1.5625 L 1.4375 0 L 0.21875 0 L 2.8125 -7.046875 L 4.25 -7.046875 L 6.859375 0 Z M 2.359375 -2.578125 L 4.71875 -2.578125 L 3.546875 -5.90625 Z M 2.359375 -2.578125 "/></g></g></g><g fill="#000000" fill-opacity="1"><g transform="translate(106.053176, 20.081076)"><g><path d="M 1.015625 0 L 1.015625 -7.046875 L 2.1875 -7.046875 L 2.1875 0 Z M 1.015625 0 "/></g></g></g><g fill="#000000" fill-opacity="1"><g transform="translate(109.248881, 20.081076)"><g><path d="M 2.1875 -1.0625 L 4.515625 -1.0625 L 4.515625 0 L 1.015625 0 L 1.015625 -7.046875 L 2.1875 -7.046875 Z M 2.1875 -1.0625 "/></g></g></g><g fill="#000000" fill-opacity="1"><g transform="translate(114.010332, 20.081076)"><g><path d="M 2.484375 0 L 2.484375 -3.359375 L 0.15625 -7.046875 L 1.484375 -7.046875 L 3.078125 -4.421875 L 4.671875 -7.046875 L 5.984375 -7.046875 L 3.671875 -3.359375 L 3.671875 0 Z M 2.484375 0 "/></g></g></g><g fill="#000000" fill-opacity="1"><g transform="translate(120.1449, 20.081076)"><g/></g></g><g fill="#000000" fill-opacity="1"><g transform="translate(122.772589, 20.081076)"><g><path d="M 5.78125 -7.046875 L 6.96875 -7.046875 L 6.96875 0 L 5.640625 0 L 2.1875 -5.375 L 2.1875 0 L 1.015625 0 L 1.015625 -7.046875 L 2.3125 -7.046875 L 5.78125 -1.703125 Z M 5.78125 -7.046875 "/></g></g></g><g fill="#000000" fill-opacity="1"><g transform="translate(130.739623, 20.081076)"><g><path d="M 4.9375 -6 L 2.203125 -6 L 2.203125 -4.046875 L 4.625 -4.046875 L 4.625 -3 L 2.203125 -3 L 2.203125 -1.0625 L 4.9375 -1.0625 L 4.9375 0 L 1.015625 0 L 1.015625 -7.046875 L 4.9375 -7.046875 Z M 4.9375 -6 "/></g></g></g><g fill="#000000" fill-opacity="1"><g transform="translate(136.281479, 20.081076)"><g><path d="M 2.203125 0 L 0.28125 -7.046875 L 1.515625 -7.046875 L 3.03125 -1.484375 L 4.703125 -7.046875 L 5.71875 -7.046875 L 7.375 -1.484375 L 8.90625 -7.046875 L 10.140625 -7.046875 L 8.21875 0 L 6.734375 0 L 5.203125 -4.890625 L 3.6875 0 Z M 2.203125 0 "/></g></g></g><g fill="#000000" fill-opacity="1"><g transform="translate(146.693449, 20.081076)"><g><path d="M 3.28125 0.09375 C 2.78125 0.09375 2.328125 0.0195312 1.921875 -0.125 C 1.523438 -0.28125 1.195312 -0.503906 0.9375 -0.796875 C 0.675781 -1.085938 0.507812 -1.441406 0.4375 -1.859375 L 1.609375 -2.140625 C 1.710938 -1.722656 1.914062 -1.410156 2.21875 -1.203125 C 2.519531 -0.992188 2.878906 -0.890625 3.296875 -0.890625 C 3.535156 -0.890625 3.753906 -0.921875 3.953125 -0.984375 C 4.148438 -1.054688 4.3125 -1.164062 4.4375 -1.3125 C 4.5625 -1.46875 4.625 -1.664062 4.625 -1.90625 C 4.613281 -2.101562 4.554688 -2.269531 4.453125 -2.40625 C 4.359375 -2.539062 4.226562 -2.648438 4.0625 -2.734375 C 3.894531 -2.828125 3.703125 -2.90625 3.484375 -2.96875 C 3.273438 -3.039062 3.054688 -3.109375 2.828125 -3.171875 C 2.609375 -3.234375 2.394531 -3.300781 2.1875 -3.375 C 1.976562 -3.445312 1.78125 -3.53125 1.59375 -3.625 C 1.414062 -3.726562 1.253906 -3.847656 1.109375 -3.984375 C 0.972656 -4.117188 0.863281 -4.28125 0.78125 -4.46875 C 0.695312 -4.664062 0.65625 -4.894531 0.65625 -5.15625 C 0.65625 -5.476562 0.71875 -5.765625 0.84375 -6.015625 C 0.96875 -6.265625 1.140625 -6.472656 1.359375 -6.640625 C 1.585938 -6.804688 1.847656 -6.929688 2.140625 -7.015625 C 2.429688 -7.109375 2.742188 -7.15625 3.078125 -7.15625 C 3.390625 -7.15625 3.691406 -7.117188 3.984375 -7.046875 C 4.273438 -6.984375 4.539062 -6.878906 4.78125 -6.734375 C 5.019531 -6.585938 5.222656 -6.398438 5.390625 -6.171875 C 5.566406 -5.953125 5.691406 -5.679688 5.765625 -5.359375 L 4.671875 -5.09375 C 4.566406 -5.457031 4.375 -5.722656 4.09375 -5.890625 C 3.820312 -6.066406 3.503906 -6.15625 3.140625 -6.15625 C 2.921875 -6.15625 2.710938 -6.117188 2.515625 -6.046875 C 2.316406 -5.984375 2.15625 -5.878906 2.03125 -5.734375 C 1.914062 -5.597656 1.859375 -5.414062 1.859375 -5.1875 C 1.859375 -5.019531 1.898438 -4.875 1.984375 -4.75 C 2.066406 -4.632812 2.179688 -4.535156 2.328125 -4.453125 C 2.484375 -4.378906 2.65625 -4.3125 2.84375 -4.25 C 3.039062 -4.1875 3.242188 -4.125 3.453125 -4.0625 C 3.679688 -4 3.90625 -3.929688 4.125 -3.859375 C 4.351562 -3.785156 4.566406 -3.695312 4.765625 -3.59375 C 4.972656 -3.5 5.15625 -3.378906 5.3125 -3.234375 C 5.476562 -3.085938 5.609375 -2.910156 5.703125 -2.703125 C 5.796875 -2.492188 5.84375 -2.242188 5.84375 -1.953125 C 5.84375 -1.617188 5.773438 -1.320312 5.640625 -1.0625 C 5.515625 -0.8125 5.332031 -0.597656 5.09375 -0.421875 C 4.863281 -0.253906 4.59375 -0.125 4.28125 -0.03125 C 3.976562 0.0507812 3.644531 0.09375 3.28125 0.09375 Z M 3.28125 0.09375 "/></g></g></g><g fill="#000000" fill-opacity="1"><g transform="translate(153.035465, 20.081076)"><g/></g></g><g fill="#000000" fill-opacity="1"><g transform="translate(155.663154, 20.081076)"><g><path d="M 3.53125 0.09375 C 3.15625 0.09375 2.804688 0.0390625 2.484375 -0.0625 C 2.160156 -0.164062 1.875 -0.320312 1.625 -0.53125 C 1.382812 -0.738281 1.195312 -1 1.0625 -1.3125 C 0.925781 -1.625 0.859375 -1.988281 0.859375 -2.40625 L 0.859375 -7.046875 L 2.046875 -7.046875 L 2.046875 -2.5625 C 2.046875 -2.1875 2.109375 -1.878906 2.234375 -1.640625 C 2.367188 -1.410156 2.546875 -1.238281 2.765625 -1.125 C 2.992188 -1.019531 3.25 -0.96875 3.53125 -0.96875 C 3.800781 -0.96875 4.046875 -1.019531 4.265625 -1.125 C 4.492188 -1.238281 4.675781 -1.410156 4.8125 -1.640625 C 4.945312 -1.878906 5.015625 -2.1875 5.015625 -2.5625 L 5.015625 -7.046875 L 6.1875 -7.046875 L 6.1875 -2.40625 C 6.1875 -1.988281 6.117188 -1.625 5.984375 -1.3125 C 5.859375 -1 5.671875 -0.738281 5.421875 -0.53125 C 5.179688 -0.320312 4.898438 -0.164062 4.578125 -0.0625 C 4.253906 0.0390625 3.90625 0.09375 3.53125 0.09375 Z M 3.53125 0.09375 "/></g></g></g><g fill="#000000" fill-opacity="1"><g transform="translate(162.711486, 20.081076)"><g><path d="M 5.03125 -6.6875 C 5.320312 -6.507812 5.535156 -6.273438 5.671875 -5.984375 C 5.804688 -5.703125 5.875 -5.359375 5.875 -4.953125 C 5.875 -4.554688 5.804688 -4.195312 5.671875 -3.875 C 5.546875 -3.550781 5.335938 -3.289062 5.046875 -3.09375 C 4.847656 -2.9375 4.601562 -2.816406 4.3125 -2.734375 C 4.03125 -2.660156 3.675781 -2.625 3.25 -2.625 L 2.1875 -2.625 L 2.1875 0 L 1.015625 0 L 1.015625 -7.046875 L 3.25 -7.046875 C 3.664062 -7.046875 4.015625 -7.015625 4.296875 -6.953125 C 4.578125 -6.898438 4.820312 -6.8125 5.03125 -6.6875 Z M 4.34375 -3.953125 C 4.457031 -4.046875 4.539062 -4.164062 4.59375 -4.3125 C 4.644531 -4.46875 4.671875 -4.660156 4.671875 -4.890625 C 4.671875 -5.109375 4.640625 -5.289062 4.578125 -5.4375 C 4.523438 -5.582031 4.441406 -5.695312 4.328125 -5.78125 C 4.191406 -5.894531 4.019531 -5.96875 3.8125 -6 C 3.613281 -6.03125 3.375 -6.046875 3.09375 -6.046875 L 2.1875 -6.046875 L 2.1875 -3.640625 L 3.09375 -3.640625 C 3.382812 -3.640625 3.632812 -3.660156 3.84375 -3.703125 C 4.050781 -3.742188 4.21875 -3.828125 4.34375 -3.953125 Z M 4.34375 -3.953125 "/></g></g></g><g fill="#000000" fill-opacity="1"><g transform="translate(168.989292, 20.081076)"><g><path d="M 1.015625 0 L 1.015625 -7.046875 L 3.421875 -7.046875 C 3.972656 -7.046875 4.453125 -6.960938 4.859375 -6.796875 C 5.273438 -6.628906 5.617188 -6.382812 5.890625 -6.0625 C 6.171875 -5.75 6.378906 -5.378906 6.515625 -4.953125 C 6.660156 -4.523438 6.734375 -4.050781 6.734375 -3.53125 C 6.734375 -3.007812 6.660156 -2.53125 6.515625 -2.09375 C 6.378906 -1.664062 6.171875 -1.296875 5.890625 -0.984375 C 5.617188 -0.671875 5.273438 -0.425781 4.859375 -0.25 C 4.453125 -0.0820312 3.972656 0 3.421875 0 Z M 2.1875 -1.0625 L 3.375 -1.0625 C 3.851562 -1.0625 4.25 -1.160156 4.5625 -1.359375 C 4.875 -1.554688 5.109375 -1.835938 5.265625 -2.203125 C 5.421875 -2.578125 5.5 -3.019531 5.5 -3.53125 C 5.5 -4.039062 5.421875 -4.476562 5.265625 -4.84375 C 5.109375 -5.21875 4.875 -5.503906 4.5625 -5.703125 C 4.25 -5.898438 3.851562 -6 3.375 -6 L 2.1875 -6 Z M 2.1875 -1.0625 "/></g></g></g><g fill="#000000" fill-opacity="1"><g transform="translate(176.264829, 20.081076)"><g><path d="M 5.640625 0 L 5.078125 -1.5625 L 2 -1.5625 L 1.4375 0 L 0.21875 0 L 2.8125 -7.046875 L 4.25 -7.046875 L 6.859375 0 Z M 2.359375 -2.578125 L 4.71875 -2.578125 L 3.546875 -5.90625 Z M 2.359375 -2.578125 "/></g></g></g><g fill="#000000" fill-opacity="1"><g transform="translate(183.337856, 20.081076)"><g><path d="M 4.90625 -7.046875 L 4.90625 -6 L 3.15625 -6 L 3.15625 0 L 1.984375 0 L 1.984375 -6 L 0.234375 -6 L 0.234375 -7.046875 Z M 4.90625 -7.046875 "/></g></g></g><g fill="#000000" fill-opacity="1"><g transform="translate(188.469753, 20.081076)"><g><path d="M 4.9375 -6 L 2.203125 -6 L 2.203125 -4.046875 L 4.625 -4.046875 L 4.625 -3 L 2.203125 -3 L 2.203125 -1.0625 L 4.9375 -1.0625 L 4.9375 0 L 1.015625 0 L 1.015625 -7.046875 L 4.9375 -7.046875 Z M 4.9375 -6 "/></g></g></g></svg>