<?xml version="1.0" encoding="UTF-8" standalone="no"?>
<svg xmlns="http://www.w3.org/2000/svg" viewBox="0 0 300 80" fill="none">
  <path d="M10 20h15a25 25 0 0 1 0 50H10V20z" fill="#000000"/>
  <path d="M25 30h-5v30h5a15 15 0 0 0 0-30z" fill="#FFFFFF"/>
  <path d="M50 20h15a25 25 0 0 1 0 50H50V20z" fill="#000000"/>
  <path d="M65 30h-5v30h5a15 15 0 0 0 0-30z" fill="#FFFFFF"/>
  <path d="M90 20h15v20h10V20h15v50h-15V50h-10v20H90V20z" fill="#000000"/>
  <path d="M140 20h15v50h-15V20z" fill="#000000"/>
  <path d="M165 20h15a25 25 0 0 1 0 50h-15V20z" fill="#000000"/>
  <path d="M180 30h-5v30h5a15 15 0 0 0 0-30z" fill="#FFFFFF"/>
  <path d="M200 20h15v20c0 10 5 20 15 20s15-10 15-20V20h15v20c0 20-15 30-30 30s-30-10-30-30V20z" fill="#000000"/>
</svg> 