<?xml version="1.0" encoding="UTF-8" standalone="no"?>
<svg xmlns="http://www.w3.org/2000/svg" viewBox="0 0 300 80" fill="none">
  <circle cx="40" cy="40" r="30" fill="#0645AD"/>
  <path d="M10 40a30 30 0 0 1 60 0 30 30 0 0 1-60 0z M20 40a20 20 0 0 0 40 0 20 20 0 0 0-40 0z" fill="#FFFFFF"/>
  <path d="M90 20h15a25 25 0 0 1 0 50H90V20z" fill="#0645AD"/>
  <path d="M105 30h-5v30h5a15 15 0 0 0 0-30z" fill="#FFFFFF"/>
  <path d="M130 20h15v50h-15V20z" fill="#0645AD"/>
  <path d="M155 20h15v20c0 10 5 20 15 20s15-10 15-20V20h15v20c0 20-15 30-30 30s-30-10-30-30V20z" fill="#0645AD"/>
  <path d="M225 20h15v20h15V20h15v50h-15V50h-15v20h-15V20z" fill="#0645AD"/>
</svg> 