<?xml version="1.0" encoding="UTF-8" standalone="no"?>
<svg xmlns="http://www.w3.org/2000/svg" viewBox="0 0 300 80" fill="none">
  <path d="M10 20h35v10H25v10h20v10H25v20H10V20z" fill="#0D9F00"/>
  <path d="M50 20h20l10 30 10-30h20v50h-15V35l-15 35h-10L55 35v35H50V20z" fill="#0D9F00"/>
  <path d="M120 20h15a25 25 0 0 1 0 50h-15V20z" fill="#0D9F00"/>
  <path d="M135 30h-5v30h5a15 15 0 0 0 0-30z" fill="#FFFFFF"/>
  <path d="M155 20h25v10h-15v10h15v10h-15v10h15v10h-25V20z" fill="#0D9F00"/>
  <path d="M190 20h15v20c0 10 5 20 15 20s15-10 15-20V20h15v20c0 20-15 30-30 30s-30-10-30-30V20z" fill="#0D9F00"/>
  <path d="M260 20h15v20c0 10 5 20 15 20v10c-15 0-30-10-30-30V20z" fill="#0D9F00"/>
</svg> 