<?xml version="1.0" encoding="UTF-8" standalone="no"?>
<svg xmlns="http://www.w3.org/2000/svg" viewBox="0 0 300 100" fill="none">
	<path d="M20 20h20v60h-20V20z" fill="#003366"/>
	<path d="M50 80l10-60h20l10 30 10-30h20l10 60h-20l-5-30-10 30h-10l-10-30-5 30H50z" fill="#003366"/>
	<path d="M140 20h20v60h-20V20z" fill="#003366"/>
	<path d="M170 20h20v20l20-20h25l-25 25 25 35h-25l-15-25-5 5v20h-20V20z" fill="#003366"/>
	<path d="M225 50c0-16.5 13.5-30 30-30h15v15h-15c-8.3 0-15 6.7-15 15s6.7 15 15 15h15v15h-15c-16.5 0-30-13.5-30-30z" fill="#003366"/>
</svg>
