<?xml version="1.0" encoding="UTF-8" standalone="no"?>
<svg xmlns="http://www.w3.org/2000/svg" viewBox="0 0 300 100" fill="none">
  <path d="M0 40h30l15 30 15-30h30l-30 60h-30L0 40z" fill="#400090"/>
  <path d="M100 20h20v70h-20V20z" fill="#400090"/>
  <path d="M100 0h20v15h-20V0z" fill="#400090"/>
  <path d="M130 20h20v10h.5c2.5-5 10-12 25-12 18 0 30 15 30 40s-12 40-30 40c-15 0-22.5-7-25-12h-.5v10h-20V20z" fill="#400090"/>
  <path d="M185 58c0-10 5-20 20-20s20 10 20 20-5 20-20 20-20-10-20-20z" fill="#400090"/>
  <path d="M240 20h20v10h.5c2.5-5 10-12 25-12 18 0 15 15 15 40v32h-20V58c0-10-2-20-13-20-15 0-17.5 15-17.5 25v27h-20V20z" fill="#400090"/>
</svg> 