<?xml version="1.0" encoding="UTF-8" standalone="no"?>
<svg xmlns="http://www.w3.org/2000/svg" viewBox="0 0 300 300" fill="none">
  <rect width="300" height="300" rx="40" fill="#FF0000"/>
  <path d="M256.5 92.7C253.9 82.9 246.2 75.2 236.4 72.5C218.3 67.5 150 67.5 150 67.5C150 67.5 81.7 67.5 63.6 72.5C53.8 75.2 46.1 82.9 43.5 92.7C38.5 110.9 38.5 150 38.5 150C38.5 150 38.5 189.1 43.5 207.3C46.1 217.1 53.8 224.8 63.6 227.5C81.7 232.5 150 232.5 150 232.5C150 232.5 218.3 232.5 236.4 227.5C246.2 224.8 253.9 217.1 256.5 207.3C261.5 189.1 261.5 150 261.5 150C261.5 150 261.5 110.9 256.5 92.7Z" fill="white"/>
  <path d="M126.5 187.5V112.5L187.2 150L126.5 187.5Z" fill="#FF0000"/>
</svg> 